<svg width="1917" height="450" viewBox="0 0 1917 450" fill="none" xmlns="http://www.w3.org/2000/svg">
<mask id="mask0_11_305" style="mask-type:alpha" maskUnits="userSpaceOnUse" x="0" y="0" width="1920" height="450">
<path d="M0 0H1920V450H0V0Z" fill="#E3F1E9"/>
</mask>
<g mask="url(#mask0_11_305)">
<path d="M815.336 289.646C809.079 286.165 801.309 280.037 801.138 268.098C801.029 259.997 803.939 252.587 805.303 245.017C807.925 230.452 804.242 214.365 798.169 202.819C791.937 190.954 782.877 182.48 773.268 179.789C768.548 178.455 763.682 178.567 759.08 180.393C754.46 182.219 750.056 185.715 745.989 189.481C736.941 197.893 728.935 209.246 722.508 222.244C716.197 235.018 711.131 249.904 709.335 266.077C708.514 273.543 708.379 281.372 709.299 288.921C710.413 297.993 713.332 306.395 717.125 313.492C724.89 328.004 736.386 337.834 747.979 342.203C759.544 346.529 771.357 342.097 779.604 328.987C783.912 322.139 786.755 313.673 789.511 305.164C790.912 300.858 792.577 296.265 795.71 294.732C798.798 293.216 802.003 294.828 804.889 296.818C807.373 298.555 809.738 300.708 812.221 302.415C812.663 302.726 813.08 302.523 813.344 301.897C814.513 299.024 815.915 296.439 816.63 293.153C816.961 291.584 815.336 290.969 815.005 292.538C814.358 295.558 812.942 298.011 811.871 300.66C812.251 300.487 812.613 300.315 812.993 300.142C808.362 296.967 803.764 291.644 798.553 291.561C792.073 291.47 789.472 299.473 786.942 307.387C784.24 315.805 780.982 323.887 776.392 330.095C772.011 336.018 766.555 339.854 760.747 340.92C748.852 343.119 736.028 334.858 726.478 323.692C721.596 317.98 717.26 310.958 714.286 302.616C711.507 294.813 710.287 286.288 710.327 277.477C710.393 261.295 714.436 245.807 719.895 232.513C725.619 218.594 733.188 206.401 741.809 196.854C749.529 188.319 758.474 180.91 768.297 181.522C778.082 182.134 787.674 189.475 794.586 200.452C801.292 211.127 806.052 227.08 804.024 242.009C802.991 249.644 800.319 256.502 799.6 264.289C798.827 272.784 801.481 280.488 805.975 285.432C808.712 288.441 811.814 290.439 814.938 292.158C816.007 292.744 816.349 290.204 815.336 289.646Z" fill="#D1D1D1"/>
<path d="M809.455 289.954C805.931 287.4 802.26 285.304 798.88 282.265C797.234 280.795 795.673 279.06 794.325 276.939C792.82 274.532 791.803 271.584 790.777 268.652C787.574 259.362 785.825 249.052 782.238 240.065C775.538 223.317 763.155 212.747 750.866 210.697C744.004 209.554 737.09 211.156 730.955 215.859C730.005 216.587 730.898 218.794 731.839 218.08C742.933 209.6 756.532 212.123 767.309 221.645C773.041 226.717 778.031 233.854 781.382 242.775C784.723 251.652 786.436 261.686 789.632 270.684C791.599 276.231 793.885 280.484 797.377 283.855C800.945 287.283 804.917 289.488 808.699 292.223C809.67 292.924 810.436 290.669 809.455 289.954Z" fill="#D1D1D1"/>
<path d="M790.547 282.631C771.471 277.625 751.166 276.724 733.546 262.397C728.432 258.244 723.763 252.95 719.744 246.482C718.999 245.275 717.882 247.136 718.628 248.344C733.155 271.657 754.362 277.275 773.873 281.463C779.322 282.636 784.778 283.707 790.207 285.129C791.244 285.421 791.593 282.908 790.547 282.631Z" fill="#D1D1D1"/>
<path d="M781.036 266.297C769.031 243.089 749.756 230.784 731.306 228.137C730.246 227.978 730.329 230.56 731.379 230.705C749.172 233.254 768.055 245.206 779.635 267.594C780.298 268.904 781.699 267.607 781.036 266.297Z" fill="#D1D1D1"/>
<path d="M764.731 260.415C757.051 258.591 749.841 253.23 743.351 246.546C742.455 245.621 741.697 247.895 742.593 248.82C749.189 255.603 756.571 261.076 764.382 262.925C765.426 263.173 765.794 260.662 764.731 260.415Z" fill="#D1D1D1"/>
<path d="M784.378 293.214C776.184 296.852 767.746 299.793 759.114 299.253C749.873 298.657 741.319 293.602 733.112 286.926C727.388 282.272 721.555 276.727 718.092 267.934C717.527 266.486 716.122 267.816 716.688 269.264C719.696 276.884 724.409 282.241 729.301 286.626C733.856 290.684 738.634 294.369 743.572 297.083C751.926 301.704 760.669 302.856 769.337 301.066C774.615 299.96 779.776 298.007 784.871 295.735C785.888 295.265 785.396 292.774 784.378 293.214Z" fill="#D1D1D1"/>
<path d="M781.7 303.515C775.82 313.813 768.043 321.07 759.226 323.396C749.197 326.021 738.966 322.194 730.697 312.484C725.708 306.611 721.44 299.382 716.906 292.689C716.122 291.538 714.993 293.391 715.786 294.556C724.218 307.007 732.21 321.143 743.968 325.219C752.997 328.347 762.407 326.723 770.556 320.351C775.273 316.662 779.43 311.448 782.933 305.328C783.629 304.075 782.405 302.276 781.7 303.515Z" fill="#D1D1D1"/>
<path d="M755.504 310.791C749.639 310.917 743.72 308.805 739.011 302.865C738.176 301.806 737.059 303.669 737.894 304.728C742.953 311.127 749.246 313.535 755.569 313.381C756.644 313.364 756.57 310.76 755.504 310.791Z" fill="#D1D1D1"/>
<path d="M770.411 289.032C763.248 288.727 756.182 286.541 749.213 283.825C748.17 283.415 747.82 285.934 748.863 286.343C755.964 289.115 763.181 291.325 770.475 291.626C771.554 291.668 771.481 289.089 770.411 289.032Z" fill="#D1D1D1"/>
<path d="M733.916 275.69C730.238 272.995 726.608 270.343 723.858 265.49C723.141 264.242 722.028 266.098 722.744 267.347C725.593 272.371 729.376 275.165 733.178 277.958C734.131 278.66 734.897 276.405 733.916 275.69Z" fill="#D1D1D1"/>
<path d="M731.75 245.923C728.3 243.596 725.021 240.738 721.563 238.426C720.581 237.767 719.823 240.041 720.805 240.7C724.255 243.027 727.533 245.885 730.992 248.197C731.982 248.841 732.741 246.596 731.75 245.923Z" fill="#D1D1D1"/>
<path d="M797.368 256.693C795.379 244.498 793.93 231.616 788.834 221.334C783.472 210.521 775.57 202.596 767.183 199.208C762.305 197.235 757.254 196.711 752.28 197.25C751.22 197.368 751.293 199.933 752.353 199.815C763.594 198.598 774.226 203.525 782.908 215.307C786.847 220.648 789.857 227.11 791.742 234.684C793.564 242.027 794.541 249.803 795.793 257.395C796.063 259.021 797.628 258.305 797.368 256.693Z" fill="#D1D1D1"/>
<path d="M797.736 221.976C795.544 215.967 793.359 209.856 790.416 204.611C787.413 199.251 783.654 195.428 779.337 193.267C778.326 192.758 777.978 195.259 778.989 195.768C783.174 197.875 786.72 201.718 789.58 206.98C792.282 211.926 794.29 217.693 796.34 223.299C796.875 224.754 798.262 223.447 797.736 221.976Z" fill="#D1D1D1"/>
<path d="M1294.46 232.616C1301.35 219.219 1307.82 203.618 1309.39 188.468C1310.88 174.097 1306.45 163.422 1298.09 158.891C1290.47 154.765 1281.12 154.954 1272.18 156.427C1262.19 158.075 1251.72 161.62 1241.74 167.915C1234.67 172.388 1227.03 178.553 1223.08 189.002C1219.62 198.124 1220.01 207.655 1221.48 215.691C1223.26 225.493 1226.72 234.081 1230.57 241.922C1234.17 249.301 1238.18 256.796 1243.06 262.425C1249.34 269.672 1257.99 272.448 1267.49 266.624C1278.43 259.915 1286.42 246.199 1294.48 233.499C1295.57 231.791 1294.29 229.699 1293.19 231.422C1286.34 242.217 1279.72 253.796 1270.85 261.026C1263.21 267.269 1255.41 268.202 1249.11 263.735C1243.37 259.643 1239.27 252.223 1235.42 245.201C1231.67 238.346 1228.27 230.961 1225.79 222.742C1223.54 215.307 1221.73 206.554 1223.12 197.168C1224.57 187.466 1229.8 180.221 1236 175.176C1244.57 168.176 1253.98 164.18 1262.87 161.639C1272.07 159.01 1281.48 157.765 1289.99 159.547C1299.47 161.521 1307.59 168.732 1307.44 183.967C1307.3 199.728 1299.94 217.188 1292.73 231.237C1291.77 233.134 1293.49 234.492 1294.46 232.616Z" fill="#D3CBCF"/>
<path d="M1295.87 245.53C1297.89 242.205 1300.3 239.024 1303.1 237.674C1305.42 236.56 1307.65 236.926 1309.58 237.894C1314.1 240.167 1317.51 245.022 1321.21 248.884C1323.12 250.902 1325.14 252.81 1327.57 253.798C1327.8 252.749 1328.02 251.678 1328.25 250.607C1317.27 250.348 1302.61 256.493 1296.6 242.744C1295.93 241.23 1294.09 243.707 1294.74 245.236C1301.1 259.745 1316.27 253.549 1327.83 253.833C1329.14 253.864 1329.56 251.052 1328.53 250.627C1323.88 248.708 1320.51 243.394 1316.81 239.611C1313.24 235.96 1308.78 232.179 1303.36 234.425C1299.98 235.829 1296.99 239.491 1294.55 243.465C1293.5 245.204 1294.78 247.298 1295.87 245.53Z" fill="#D3CBCF"/>
<path d="M1296.07 244.182C1301.49 252.194 1305.37 263.626 1302.51 277.099C1303.17 276.533 1303.84 275.967 1304.5 275.402C1300.65 272.791 1298.26 267.322 1296.87 261.595C1295.47 255.867 1294.88 248.752 1296.93 241.91C1297.58 239.705 1295.38 239.076 1294.73 241.282C1292.46 248.878 1292.97 256.663 1294.45 263.109C1295.94 269.493 1298.65 275.661 1302.94 278.523C1303.73 279.043 1304.65 278.15 1304.93 276.826C1307.97 262.483 1303.85 250.037 1298.1 241.511C1297.13 240.143 1295.12 242.799 1296.07 244.182Z" fill="#D3CBCF"/>
<path d="M1295.4 242.058C1301.4 224.279 1316.31 214.425 1327.17 219.83C1327.11 219.009 1327.05 218.187 1327.02 217.372C1324.66 220.667 1322.5 224.22 1320.14 227.495C1317.92 230.608 1315.37 233.92 1312.45 234.951C1311.05 235.448 1311.24 238.281 1312.62 237.816C1318.85 235.628 1323.76 225.657 1328.28 219.324C1328.97 218.35 1328.81 217.209 1328.12 216.866C1316.23 210.963 1299.97 222.263 1293.48 241.508C1292.82 243.405 1294.77 243.961 1295.4 242.058Z" fill="#D3CBCF"/>
<path d="M1300.06 190.36C1298.65 188.99 1296.74 188.949 1294.92 188.813C1294.66 188.8 1294.28 189.104 1294.06 189.397C1293.85 189.689 1293.64 190.16 1293.61 190.561C1293.57 190.998 1293.6 191.418 1293.8 191.669C1293.99 191.956 1294.22 192.021 1294.52 192.026C1294.46 192.028 1294.21 191.999 1294.52 192.026C1294.58 192.024 1294.65 192.043 1294.71 192.041C1294.82 192.052 1294.95 192.048 1295.06 192.059C1295.28 192.081 1295.51 192.088 1295.74 192.131C1296.14 192.182 1296.53 192.234 1296.92 192.322C1297.1 192.353 1297.27 192.419 1297.44 192.485C1297.51 192.525 1297.6 192.551 1297.68 192.592C1297.73 192.604 1297.77 192.617 1297.8 192.645C1297.97 192.732 1297.55 192.517 1297.73 192.604C1298.06 192.794 1298.35 193.014 1298.64 193.269C1299.05 193.678 1299.89 193.244 1300.24 192.462C1300.6 191.644 1300.52 190.782 1300.06 190.36Z" fill="#D3CBCF"/>
<path d="M1290.2 219.155C1289.15 219.08 1288.17 218.729 1287.23 218.29C1287.18 218.256 1287.13 218.243 1287.08 218.209C1287.21 218.284 1287.15 218.25 1287.05 218.202C1286.93 218.149 1286.83 218.08 1286.7 218.026C1286.48 217.904 1286.24 217.76 1286.03 217.622C1285.56 217.335 1285.09 217.026 1284.62 216.716C1284.14 216.407 1283.4 216.654 1283.01 217.531C1282.65 218.299 1282.63 219.358 1283.15 219.702C1285.04 220.917 1286.97 222.203 1289.23 222.376C1289.54 222.403 1289.79 222.373 1290.1 222.104C1290.35 221.88 1290.64 221.446 1290.74 221.061C1290.94 220.269 1290.79 219.201 1290.2 219.155Z" fill="#D3CBCF"/>
<path d="M1274.25 250.864C1274.02 250.899 1273.8 250.935 1273.58 250.971C1273.47 250.981 1273.37 250.992 1273.26 250.981C1273.19 250.983 1273.15 250.97 1273.08 250.972C1273.04 250.981 1272.86 250.95 1273.06 250.966C1273.26 250.981 1273.08 250.951 1273.04 250.959C1272.97 250.961 1272.93 250.948 1272.86 250.95C1272.75 250.939 1272.64 250.907 1272.53 250.896C1272.33 250.86 1272.13 250.787 1271.94 250.714C1271.84 250.666 1271.75 250.641 1271.65 250.594C1271.5 250.512 1271.65 250.594 1271.72 250.613C1271.67 250.579 1271.62 250.566 1271.57 250.531C1271.39 250.422 1271.2 250.292 1271.02 250.161C1270.83 250.031 1270.65 249.864 1270.48 249.718C1270.39 249.613 1270.3 249.53 1270.21 249.425C1270.14 249.348 1270.05 249.165 1270.21 249.447C1270.17 249.376 1270.12 249.342 1270.08 249.271C1269.88 249.019 1269.66 248.861 1269.36 248.913C1269.08 248.936 1268.72 249.17 1268.5 249.501C1268.06 250.146 1267.81 251.275 1268.21 251.8C1269 252.745 1269.87 253.479 1270.91 253.906C1271.8 254.273 1272.8 254.335 1273.81 254.123C1274.4 254.012 1275.05 253.287 1275.15 252.372C1275.23 251.529 1274.88 250.743 1274.25 250.864Z" fill="#D3CBCF"/>
<path d="M1282.96 196.485C1281.29 195.827 1279.56 195.171 1277.63 195.563C1277.04 195.672 1276.4 196.387 1276.3 197.29C1276.22 198.101 1276.57 198.898 1277.19 198.78C1277.65 198.674 1278.09 198.661 1278.54 198.668C1278.58 198.66 1278.62 198.673 1278.67 198.686C1278.38 198.701 1278.56 198.675 1278.62 198.673C1278.73 198.684 1278.84 198.695 1278.95 198.705C1279.17 198.727 1279.37 198.785 1279.57 198.821C1280.41 199.015 1281.2 199.332 1281.99 199.648C1282.49 199.867 1283.27 199.17 1283.48 198.355C1283.74 197.44 1283.51 196.717 1282.96 196.485Z" fill="#D3CBCF"/>
<path d="M1271.98 222.415C1270.35 222.294 1268.84 221.619 1267.35 221.009C1266.82 220.804 1266.06 221.492 1265.85 222.313C1265.6 223.221 1265.83 223.971 1266.38 224.182C1267.87 224.772 1269.38 225.446 1271.02 225.588C1271.32 225.614 1271.57 225.585 1271.88 225.319C1272.13 225.096 1272.41 224.666 1272.52 224.284C1272.63 223.866 1272.67 223.408 1272.56 223.083C1272.47 222.764 1272.27 222.434 1271.98 222.415Z" fill="#D3CBCF"/>
<path d="M1275.34 173.694C1272.47 173.476 1269.72 172.767 1266.86 172.549C1266.3 172.509 1265.61 172.918 1265.37 173.835C1265.15 174.604 1265.3 175.651 1265.9 175.683C1268.77 175.901 1271.52 176.61 1274.38 176.828C1274.94 176.868 1275.62 176.459 1275.87 175.542C1276.07 174.787 1275.92 173.74 1275.34 173.694Z" fill="#D3CBCF"/>
<path d="M1264.09 200.112C1262.6 200.021 1261.03 200.387 1259.54 200.296C1259.29 200.282 1258.91 200.58 1258.7 200.865C1258.49 201.151 1258.29 201.611 1258.26 202.003C1258.21 202.431 1258.25 202.843 1258.45 203.089C1258.63 203.37 1258.86 203.434 1259.15 203.439C1260.64 203.53 1262.21 203.164 1263.7 203.255C1263.95 203.269 1264.33 202.971 1264.54 202.686C1264.75 202.4 1264.95 201.94 1264.98 201.548C1265.03 201.12 1264.99 200.708 1264.8 200.462C1264.59 200.195 1264.38 200.117 1264.09 200.112Z" fill="#D3CBCF"/>
<path d="M1255.59 234.809C1253.71 233.586 1251.71 232.63 1249.94 231.142C1249.48 230.755 1248.69 231.152 1248.31 231.965C1247.93 232.815 1247.96 233.762 1248.46 234.161C1250.24 235.634 1252.23 236.605 1254.11 237.828C1254.59 238.14 1255.34 237.891 1255.74 237.004C1256.08 236.221 1256.1 235.149 1255.59 234.809Z" fill="#D3CBCF"/>
<path d="M1255.17 183.694C1253.2 183.555 1251.39 182.895 1249.42 182.735C1249.12 182.708 1248.87 182.737 1248.57 183.001C1248.31 183.221 1248.04 183.647 1247.93 184.026C1247.71 184.797 1247.86 185.848 1248.46 185.879C1250.43 186.018 1252.24 186.679 1254.21 186.839C1254.51 186.865 1254.76 186.836 1255.06 186.572C1255.32 186.352 1255.59 185.926 1255.7 185.548C1255.9 184.791 1255.75 183.74 1255.17 183.694Z" fill="#D3CBCF"/>
<path d="M1248.81 212.138C1246.98 211.392 1245.14 210.704 1243.24 210.118C1242.71 209.97 1241.96 210.567 1241.74 211.428C1241.5 212.303 1241.71 213.128 1242.28 213.304C1244.17 213.869 1246.01 214.578 1247.85 215.323C1248.37 215.529 1249.14 214.838 1249.35 214.014C1249.6 213.103 1249.37 212.35 1248.81 212.138Z" fill="#D3CBCF"/>
<path d="M1237.36 186.391C1235.72 185.738 1234.1 185.092 1232.48 184.425C1231.95 184.219 1231.19 184.911 1230.97 185.737C1230.72 186.651 1230.96 187.405 1231.51 187.617C1233.13 188.285 1234.77 188.916 1236.39 189.584C1236.92 189.79 1237.68 189.097 1237.9 188.271C1238.15 187.379 1237.92 186.625 1237.36 186.391Z" fill="#D3CBCF"/>
<path d="M1243.23 170.062C1242.77 170.168 1242.33 170.181 1241.88 170.173C1241.84 170.181 1241.8 170.169 1241.75 170.156C1242.04 170.14 1241.86 170.167 1241.8 170.169C1241.69 170.158 1241.58 170.147 1241.47 170.136C1241.25 170.114 1241.05 170.057 1240.85 170.02C1240.01 169.826 1239.22 169.51 1238.43 169.193C1237.91 168.989 1237.15 169.672 1236.94 170.486C1236.69 171.387 1236.93 172.132 1237.47 172.342C1239.14 173 1240.87 173.657 1242.81 173.265C1243.39 173.155 1244.03 172.441 1244.13 171.537C1244.2 170.72 1243.84 169.922 1243.23 170.062Z" fill="#D3CBCF"/>
<path d="M1236.5 211.25C1235.9 211.204 1235.33 211.064 1234.8 210.777C1234.87 210.818 1234.96 210.844 1235.05 210.906C1234.39 210.566 1233.8 210.065 1233.25 209.497C1233.07 209.308 1232.7 209.305 1232.44 209.429C1232.15 209.568 1231.82 209.911 1231.65 210.278C1231.48 210.666 1231.35 211.103 1231.37 211.507C1231.41 211.932 1231.55 212.209 1231.77 212.448C1232.85 213.519 1234.07 214.332 1235.52 214.438C1235.82 214.464 1236.07 214.435 1236.38 214.165C1236.64 213.94 1236.93 213.505 1237.03 213.119C1237.15 212.696 1237.19 212.233 1237.07 211.904C1236.98 211.603 1236.78 211.27 1236.5 211.25Z" fill="#D3CBCF"/>
<path d="M1261.89 257.339C1260.06 256.593 1258.34 255.507 1256.33 255.32C1256.02 255.293 1255.77 255.323 1255.46 255.59C1255.21 255.814 1254.93 256.245 1254.82 256.629C1254.6 257.41 1254.75 258.473 1255.36 258.505C1257.38 258.656 1259.09 259.778 1260.93 260.524C1261.44 260.744 1262.22 260.039 1262.43 259.215C1262.7 258.288 1262.45 257.572 1261.89 257.339Z" fill="#D3CBCF"/>
<path d="M1289.94 170.58C1288.69 169.76 1287.26 169.225 1285.75 169.1C1285.44 169.074 1285.2 169.103 1284.89 169.371C1284.63 169.593 1284.35 170.025 1284.25 170.407C1284.13 170.826 1284.09 171.285 1284.21 171.611C1284.32 171.915 1284.52 172.245 1284.78 172.28C1285.96 172.372 1287.07 172.738 1288.09 173.278C1288.02 173.238 1287.93 173.212 1287.84 173.15C1288.06 173.251 1288.27 173.366 1288.48 173.503C1288.72 173.667 1288.98 173.701 1289.28 173.57C1289.56 173.433 1289.89 173.093 1290.07 172.73C1290.42 171.967 1290.44 170.915 1289.94 170.58Z" fill="#D3CBCF"/>
<path d="M1296.77 242.279C1300.11 243.11 1303.51 243.84 1306.7 245.14C1307.23 245.344 1307.97 244.651 1308.2 243.837C1308.48 242.936 1308.19 242.174 1307.67 241.969C1304.45 240.684 1301.08 239.961 1297.72 239.123C1297.17 238.99 1296.48 239.561 1296.22 240.426C1295.97 241.276 1296.2 242.161 1296.77 242.279Z" fill="#D3CBCF"/>
</g>
</svg>
